<svg width="15" height="14" viewBox="0 0 15 14" fill="none" xmlns="http://www.w3.org/2000/svg">
<path d="M5.59995 13.6V2.39995H6.79995V13.6H5.59995ZM8.39995 11.2V4.79995H9.59995V11.2H8.39995ZM2.79995 9.59995V6.39995H3.99995V9.59995H2.79995ZM11.2 9.19995V6.79995H12.4V9.19995H11.2ZM-4.87566e-05 8.59995V7.39995H1.19995V8.59995H-4.87566e-05ZM11.6 5.59995C11.5888 5.59995 11.5444 5.56662 11.4666 5.49995C11.3111 4.86662 11 4.32217 10.5333 3.86662C10.0777 3.39995 9.53329 3.08884 8.89995 2.93328C8.87773 2.92217 8.8444 2.87773 8.79995 2.79995C8.79995 2.77773 8.83329 2.73328 8.89995 2.66662C9.53329 2.51106 10.0777 2.20551 10.5333 1.74995C11 1.28328 11.3111 0.733284 11.4666 0.0999508C11.4777 0.0777283 11.5222 0.0443948 11.6 -4.95911e-05C11.6222 -4.95911e-05 11.6666 0.0332839 11.7333 0.0999508C11.9 0.733284 12.2111 1.27773 12.6666 1.73328C13.1222 2.18884 13.6666 2.49995 14.3 2.66662C14.3222 2.66662 14.3555 2.71106 14.4 2.79995C14.4 2.81106 14.3666 2.85551 14.3 2.93328C13.6666 3.08884 13.1166 3.39995 12.65 3.86662C12.1944 4.32217 11.8888 4.86662 11.7333 5.49995C11.7333 5.52217 11.6888 5.55551 11.6 5.59995Z" fill="#C4C7C5"/>
</svg>
