<svg width="16" height="16" viewBox="0 0 16 16" fill="none" xmlns="http://www.w3.org/2000/svg">
<g clip-path="url(#clip0_5316_1044)">
<path d="M5.6 13.6V12.8L6.4 12H2.8C2.46667 12 2.18333 11.8833 1.95 11.65C1.71667 11.4167 1.6 11.1333 1.6 10.8V3.58333C1.6 3.25 1.71667 2.96667 1.95 2.73333C2.18333 2.5 2.46667 2.38333 2.8 2.38333H13.2C13.5333 2.38333 13.8167 2.5 14.05 2.73333C14.2833 2.96667 14.4 3.25 14.4 3.58333V10.8C14.4 11.1333 14.2833 11.4167 14.05 11.65C13.8167 11.8833 13.5333 12 13.2 12H9.6L10.4 12.8V13.6H5.6ZM2.8 8.8H13.2V3.58333H2.8V8.8ZM2.8 8.8V3.58333V8.8Z" fill="#C4C7C5"/>
</g>
<defs>
<clipPath id="clip0_5316_1044">
<rect width="16" height="16" fill="white"/>
</clipPath>
</defs>
</svg>
