<svg width="13" height="12" viewBox="0 0 13 12" fill="none" xmlns="http://www.w3.org/2000/svg">
<path d="M3.1999 11.2V10.4L3.9999 9.59998H1.1999C0.866569 9.59998 0.583236 9.48331 0.349902 9.24998C0.116569 9.01664 -9.75132e-05 8.73331 -9.75132e-05 8.39998V1.19998C-9.75132e-05 0.866642 0.116569 0.583308 0.349902 0.349975C0.583236 0.116642 0.866569 -2.47955e-05 1.1999 -2.47955e-05H11.5999C11.9332 -2.47955e-05 12.2166 0.116642 12.4499 0.349975C12.6832 0.583308 12.7999 0.866642 12.7999 1.19998V8.39998C12.7999 8.73331 12.6832 9.01664 12.4499 9.24998C12.2166 9.48331 11.9332 9.59998 11.5999 9.59998H8.7999L9.5999 10.4V11.2H3.1999ZM1.1999 8.39998H11.5999V1.19998H1.1999V8.39998ZM1.1999 8.39998V1.19998V8.39998Z" fill="#C4C7C5"/>
</svg>
