<svg width="17" height="15" viewBox="0 0 17 15" fill="none" xmlns="http://www.w3.org/2000/svg">
<path d="M3.43758 13.5H13.5209L15.4376 10.1875L10.3751 1.5H6.58342L1.52091 10.1875L3.43758 13.5ZM3.31258 15C3.07647 15 2.85425 14.9444 2.64591 14.8333C2.45147 14.7083 2.29869 14.5486 2.18758 14.3542L0.166748 10.8333C0.055637 10.6389 8.14199e-05 10.4236 8.14199e-05 10.1875C8.14199e-05 9.95139 0.055637 9.73611 0.166748 9.54167L5.33342 0.645833C5.44453 0.451388 5.5973 0.298611 5.79175 0.1875C6.00008 0.062499 6.2223 -1.19209e-06 6.45842 -1.19209e-06H10.5001C10.7362 -1.19209e-06 10.9515 0.062499 11.1459 0.1875C11.3542 0.298611 11.514 0.451388 11.6251 0.645833L16.7917 9.54167C16.9029 9.73611 16.9584 9.95139 16.9584 10.1875C16.9584 10.4236 16.9029 10.6389 16.7917 10.8333L14.7709 14.3542C14.6598 14.5486 14.5001 14.7083 14.2917 14.8333C14.0973 14.9444 13.882 15 13.6459 15H3.31258ZM4.72925 11.4375L4.16675 10.4375L7.77092 4.14583H9.18758L12.7917 10.4375L12.2292 11.4375H4.72925ZM6.16675 9.95833H10.7917L8.47925 5.91667L6.16675 9.95833Z" fill="#C4C7C5"/>
</svg>
