<svg width="12" height="12" viewBox="0 0 12 12" fill="none" xmlns="http://www.w3.org/2000/svg">
<path d="M1.19961 10.0001H2.04961L8.29961 3.7501L7.44961 2.9001L1.19961 9.1501V10.0001ZM-0.00039053 11.2001V8.6501L8.29961 0.350097C8.42183 0.227874 8.55517 0.138986 8.69961 0.0834303C8.84405 0.0278749 8.99405 9.72748e-05 9.14961 9.72748e-05C9.30517 9.72748e-05 9.45517 0.0278749 9.59961 0.0834303C9.74405 0.138986 9.87739 0.227874 9.99961 0.350097L10.8496 1.2001C10.9718 1.32232 11.0607 1.45565 11.1163 1.6001C11.1718 1.74454 11.1996 1.89454 11.1996 2.0501C11.1996 2.20565 11.1718 2.35565 11.1163 2.5001C11.0607 2.64454 10.9718 2.77787 10.8496 2.9001L2.54961 11.2001H-0.00039053ZM9.99961 2.0501L9.14961 1.2001L9.99961 2.0501ZM7.86628 3.33343L7.44961 2.9001L8.29961 3.7501L7.86628 3.33343Z" fill="#C4C7C5"/>
</svg>
