<svg width="15" height="10" viewBox="0 0 15 10" fill="none" xmlns="http://www.w3.org/2000/svg">
<path d="M7.19995 7.60005C7.97773 7.60005 8.63884 7.32783 9.18328 6.78338C9.72773 6.23894 9.99995 5.57783 9.99995 4.80005C9.99995 4.02227 9.72773 3.36116 9.18328 2.81672C8.63884 2.27227 7.97773 2.00005 7.19995 2.00005C6.42217 2.00005 5.76106 2.27227 5.21662 2.81672C4.67217 3.36116 4.39995 4.02227 4.39995 4.80005C4.39995 5.57783 4.67217 6.23894 5.21662 6.78338C5.76106 7.32783 6.42217 7.60005 7.19995 7.60005ZM7.19995 6.40005C6.75551 6.40005 6.37773 6.24449 6.06662 5.93338C5.75551 5.62227 5.59995 5.24449 5.59995 4.80005C5.59995 4.3556 5.75551 3.97783 6.06662 3.66671C6.37773 3.3556 6.75551 3.20005 7.19995 3.20005C7.6444 3.20005 8.02217 3.3556 8.33329 3.66671C8.6444 3.97783 8.79995 4.3556 8.79995 4.80005C8.79995 5.24449 8.6444 5.62227 8.33329 5.93338C8.02217 6.24449 7.6444 6.40005 7.19995 6.40005ZM7.19995 9.60005C5.61106 9.60005 4.16662 9.16672 2.86662 8.30005C1.56662 7.42227 0.611062 6.2556 -4.87566e-05 4.80005C0.611062 3.34449 1.56662 2.18338 2.86662 1.31672C4.16662 0.438937 5.61106 4.76837e-05 7.19995 4.76837e-05C8.78884 4.76837e-05 10.2333 0.438937 11.5333 1.31672C12.8333 2.18338 13.7888 3.34449 14.4 4.80005C13.7888 6.2556 12.8333 7.42227 11.5333 8.30005C10.2333 9.16672 8.78884 9.60005 7.19995 9.60005ZM7.19995 8.40005C8.4444 8.40005 9.5944 8.07783 10.65 7.43338C11.7055 6.78894 12.5166 5.91116 13.0833 4.80005C12.5166 3.68894 11.7055 2.81116 10.65 2.16671C9.5944 1.52227 8.4444 1.20005 7.19995 1.20005C5.95551 1.20005 4.80551 1.52227 3.74995 2.16671C2.6944 2.81116 1.88328 3.68894 1.31662 4.80005C1.88328 5.91116 2.6944 6.78894 3.74995 7.43338C4.80551 8.07783 5.95551 8.40005 7.19995 8.40005Z" fill="#C4C7C5"/>
</svg>
