<svg width="20" height="20" viewBox="0 0 20 20" fill="none" xmlns="http://www.w3.org/2000/svg">
<path d="M4.5 17C4.08333 17 3.72917 16.8542 3.4375 16.5625C3.14583 16.2569 3 15.9028 3 15.5V4.5C3 4.09722 3.14583 3.75 3.4375 3.45833C3.72917 3.15278 4.08333 3 4.5 3H15.5C15.9167 3 16.2708 3.15278 16.5625 3.45833C16.8542 3.75 17 4.09722 17 4.5V15.5C17 15.9028 16.8542 16.2569 16.5625 16.5625C16.2708 16.8542 15.9167 17 15.5 17H4.5ZM4.5 15.5H15.5V4.5H4.5V15.5ZM5.5 14H14.5L11.5 10L9.25 13L7.75 11L5.5 14ZM4.5 15.5V4.5V15.5ZM7 8C7.27778 8 7.51389 7.90278 7.70833 7.70833C7.90278 7.51389 8 7.27778 8 7C8 6.72222 7.90278 6.48611 7.70833 6.29167C7.51389 6.09722 7.27778 6 7 6C6.72222 6 6.48611 6.09722 6.29167 6.29167C6.09722 6.48611 6 6.72222 6 7C6 7.27778 6.09722 7.51389 6.29167 7.70833C6.48611 7.90278 6.72222 8 7 8Z" fill="#C4C7C5"/>
</svg>
