<svg width="18" height="22" viewBox="0 0 18 22" fill="none" xmlns="http://www.w3.org/2000/svg">
<path d="M3.5 19V17H10.5V19H3.5ZM7 22C6.45 22 5.975 21.8083 5.575 21.425C5.19167 21.025 5 20.55 5 20H9C9 20.55 8.8 21.025 8.4 21.425C8.01667 21.8083 7.55 22 7 22ZM3.4 16C2.36667 15.3833 1.54167 14.55 0.925 13.5C0.308334 12.45 2.38419e-07 11.2833 2.38419e-07 10C2.38419e-07 8.05 0.675 6.4 2.025 5.05C3.39167 3.68333 5.05 3 7 3C7 3.3 7 3.63333 7 4C7 4.36667 7 4.7 7 5C5.61667 5 4.43333 5.49167 3.45 6.475C2.48333 7.44167 2 8.61667 2 10C2 10.8 2.175 11.55 2.525 12.25C2.875 12.9333 3.36667 13.5167 4 14H10C10.5 13.6167 10.9083 13.175 11.225 12.675C11.5417 12.1583 11.7667 11.6 11.9 11C12.2 11 12.5333 11 12.9 11C13.2833 11 13.625 11 13.925 11C13.775 12.0667 13.4083 13.0333 12.825 13.9C12.2417 14.7667 11.5 15.4667 10.6 16H3.4ZM13.5 9C13.4833 9 13.4167 8.95 13.3 8.85C13.0333 7.83333 12.525 6.95833 11.775 6.225C11.0417 5.475 10.1667 4.96667 9.15 4.7C9.11667 4.68333 9.06667 4.61667 9 4.5C9 4.46667 9.05 4.4 9.15 4.3C10.1667 4.03333 11.0417 3.53333 11.775 2.8C12.525 2.05 13.0333 1.16667 13.3 0.149998C13.3167 0.116665 13.3833 0.0666656 13.5 -9.53674e-07C13.5333 -9.53674e-07 13.6 0.0499988 13.7 0.149998C13.9833 1.16667 14.4917 2.05 15.225 2.8C15.9583 3.53333 16.8333 4.03333 17.85 4.3C17.8833 4.3 17.9333 4.36667 18 4.5C18 4.51667 17.95 4.58333 17.85 4.7C16.8333 4.96667 15.95 5.475 15.2 6.225C14.4667 6.95833 13.9667 7.83333 13.7 8.85C13.7 8.88333 13.6333 8.93333 13.5 9Z" fill="#C4C7C5"/>
</svg>
