<svg width="10" height="14" viewBox="0 0 10 14" fill="none" xmlns="http://www.w3.org/2000/svg">
<path d="M1.20005 13.6C0.866716 13.6 0.583382 13.4833 0.350049 13.25C0.116716 13.0166 4.91142e-05 12.7333 4.91142e-05 12.4V5.99995C4.91142e-05 5.66662 0.116716 5.38328 0.350049 5.14995C0.583382 4.91662 0.866716 4.79995 1.20005 4.79995H1.60005V3.19995C1.60005 2.31106 1.91116 1.55551 2.53338 0.933284C3.1556 0.311062 3.91116 -4.95911e-05 4.80005 -4.95911e-05C5.68894 -4.95911e-05 6.44449 0.311062 7.06672 0.933284C7.68894 1.55551 8.00005 2.31106 8.00005 3.19995V4.79995H8.40005C8.73338 4.79995 9.01672 4.91662 9.25005 5.14995C9.48338 5.38328 9.60005 5.66662 9.60005 5.99995V12.4C9.60005 12.7333 9.48338 13.0166 9.25005 13.25C9.01672 13.4833 8.73338 13.6 8.40005 13.6H1.20005ZM1.20005 12.4H8.40005V5.99995H1.20005V12.4ZM4.80005 10.4C5.13338 10.4 5.41672 10.2833 5.65005 10.05C5.88338 9.81662 6.00005 9.53328 6.00005 9.19995C6.00005 8.86662 5.88338 8.58328 5.65005 8.34995C5.41672 8.11662 5.13338 7.99995 4.80005 7.99995C4.46672 7.99995 4.18338 8.11662 3.95005 8.34995C3.71672 8.58328 3.60005 8.86662 3.60005 9.19995C3.60005 9.53328 3.71672 9.81662 3.95005 10.05C4.18338 10.2833 4.46672 10.4 4.80005 10.4ZM2.80005 4.79995H6.80005V3.19995C6.80005 2.64439 6.60561 2.17217 6.21672 1.78328C5.82783 1.39439 5.3556 1.19995 4.80005 1.19995C4.24449 1.19995 3.77227 1.39439 3.38338 1.78328C2.99449 2.17217 2.80005 2.64439 2.80005 3.19995V4.79995ZM1.20005 12.4V5.99995V12.4Z" fill="#C4C7C5"/>
</svg>
