<svg width="20" height="16" viewBox="0 0 20 16" fill="none" xmlns="http://www.w3.org/2000/svg">
<path d="M2 -9.53674e-07L4 4H7L5 -9.53674e-07H7L9 4H12L10 -9.53674e-07H12L14 4H17L15 -9.53674e-07H18C18.55 -9.53674e-07 19.0167 0.199999 19.4 0.599998C19.8 0.983333 20 1.45 20 2V14C20 14.55 19.8 15.025 19.4 15.425C19.0167 15.8083 18.55 16 18 16H2C1.45 16 0.975 15.8083 0.575 15.425C0.191667 15.025 5.96046e-08 14.55 5.96046e-08 14V2C5.96046e-08 1.45 0.191667 0.983333 0.575 0.599998C0.975 0.199999 1.45 -9.53674e-07 2 -9.53674e-07ZM2 6V14H18V6H2ZM2 6V14V6Z" fill="#C4C7C5"/>
</svg>
