<svg width="15" height="15" viewBox="0 0 15 15" fill="none" xmlns="http://www.w3.org/2000/svg">
<path d="M11.2666 11.6H4.0666C3.69993 11.6 3.40549 11.4944 3.18327 11.2833C2.97216 11.0611 2.8666 10.7666 2.8666 10.4V3.19995C2.8666 2.83328 2.97216 2.5444 3.18327 2.33328C3.40549 2.11106 3.69993 1.99995 4.0666 1.99995H7.6666C7.6666 2.19995 7.6666 2.39995 7.6666 2.59995C7.6666 2.79995 7.6666 2.99995 7.6666 3.19995H4.0666V10.0333C4.51105 9.49995 5.04438 9.0944 5.6666 8.81662C6.29994 8.53884 6.9666 8.39995 7.6666 8.39995C8.35549 8.39995 9.0166 8.53884 9.64994 8.81662C10.2833 9.0944 10.8222 9.49995 11.2666 10.0333C11.2777 10.0444 11.2777 10.0444 11.2666 10.0333C11.2555 10.0222 11.2555 10.0222 11.2666 10.0333V6.79995C11.4666 6.79995 11.6666 6.79995 11.8666 6.79995C12.0666 6.79995 12.2666 6.79995 12.4666 6.79995V10.4C12.4666 10.7666 12.3555 11.0611 12.1333 11.2833C11.9222 11.4944 11.6333 11.6 11.2666 11.6ZM7.6666 9.59995C7.25549 9.59995 6.86105 9.67217 6.48327 9.81662C6.10549 9.94995 5.75549 10.1444 5.43327 10.4H9.89994C9.57771 10.1444 9.22771 9.94995 8.84994 9.81662C8.47216 9.67217 8.07771 9.59995 7.6666 9.59995ZM7.6666 3.99995C8.1666 3.99995 8.58882 4.17773 8.93327 4.53328C9.28882 4.87773 9.4666 5.29995 9.4666 5.79995C9.4666 6.29995 9.28882 6.72773 8.93327 7.08328C8.58882 7.42773 8.1666 7.59995 7.6666 7.59995C7.1666 7.59995 6.73882 7.42773 6.38327 7.08328C6.03882 6.72773 5.8666 6.29995 5.8666 5.79995C5.8666 5.29995 6.03882 4.87773 6.38327 4.53328C6.73882 4.17773 7.1666 3.99995 7.6666 3.99995ZM7.6666 5.19995C7.49994 5.19995 7.35549 5.26106 7.23327 5.38328C7.12216 5.49439 7.0666 5.63328 7.0666 5.79995C7.0666 5.96662 7.12216 6.11106 7.23327 6.23328C7.35549 6.3444 7.49994 6.39995 7.6666 6.39995C7.83327 6.39995 7.97216 6.3444 8.08327 6.23328C8.20549 6.11106 8.2666 5.96662 8.2666 5.79995C8.2666 5.63328 8.20549 5.49439 8.08327 5.38328C7.97216 5.26106 7.83327 5.19995 7.6666 5.19995ZM2.38327 14.4C2.06105 14.4444 1.7666 14.3666 1.49993 14.1666C1.23327 13.9555 1.07771 13.6888 1.03327 13.3666L0.0666016 6.21662C0.0221572 5.88328 0.0999349 5.58884 0.299935 5.33328C0.511046 5.06662 0.783268 4.91106 1.1166 4.86662L2.0666 4.74995V5.96662L1.2666 6.06662L2.2166 13.2L8.2166 12.4L10.7999 12.1333C10.7999 12.4111 10.6555 12.6888 10.3666 12.9666C10.0888 13.2444 9.80549 13.4 9.5166 13.4333L2.38327 14.4ZM11.6666 5.59995C11.6555 5.59995 11.611 5.56662 11.5333 5.49995C11.3777 4.86662 11.0666 4.32217 10.5999 3.86662C10.1444 3.39995 9.59994 3.08884 8.9666 2.93328C8.94438 2.92217 8.91105 2.87773 8.8666 2.79995C8.8666 2.77773 8.89994 2.73328 8.9666 2.66662C9.59994 2.51106 10.1444 2.20551 10.5999 1.74995C11.0666 1.28328 11.3777 0.733284 11.5333 0.0999508C11.5444 0.0777283 11.5888 0.0443948 11.6666 -4.95911e-05C11.6888 -4.95911e-05 11.7333 0.0332839 11.7999 0.0999508C11.9666 0.733284 12.2777 1.27773 12.7333 1.73328C13.1888 2.18884 13.7333 2.49995 14.3666 2.66662C14.3888 2.66662 14.4222 2.71106 14.4666 2.79995C14.4666 2.81106 14.4333 2.85551 14.3666 2.93328C13.7333 3.08884 13.1833 3.39995 12.7166 3.86662C12.261 4.32217 11.9555 4.86662 11.7999 5.49995C11.7999 5.52217 11.7555 5.55551 11.6666 5.59995Z" fill="#C4C7C5"/>
</svg>
