<svg width="16" height="16" viewBox="0 0 16 16" fill="none" xmlns="http://www.w3.org/2000/svg">
<g clip-path="url(#clip0_5316_1051)">
<path d="M10.4 5.4C10.5111 5.4 10.6056 5.36111 10.6833 5.28333C10.7611 5.20555 10.8 5.11111 10.8 5C10.8 4.88889 10.7611 4.79444 10.6833 4.71667C10.6056 4.63889 10.5111 4.6 10.4 4.6C10.2889 4.6 10.1944 4.63889 10.1167 4.71667C10.0389 4.79444 10 4.88889 10 5C10 5.11111 10.0389 5.20555 10.1167 5.28333C10.1944 5.36111 10.2889 5.4 10.4 5.4ZM4.4 15.2C4.06667 15.2 3.78333 15.0833 3.55 14.85C3.31667 14.6167 3.2 14.3333 3.2 14V2C3.2 1.66667 3.31667 1.38333 3.55 1.15C3.78333 0.916666 4.06667 0.799999 4.4 0.799999H11.6C11.9333 0.799999 12.2167 0.916666 12.45 1.15C12.6833 1.38333 12.8 1.66667 12.8 2V14C12.8 14.3333 12.6833 14.6167 12.45 14.85C12.2167 15.0833 11.9333 15.2 11.6 15.2H4.4ZM4.4 6.8V14H11.6V6.8H4.4ZM4.4 3.2H11.6V2H4.4V3.2ZM4.4 14V2V14ZM5.8 5.6H8.2C8.36667 5.6 8.50556 5.54444 8.61667 5.43333C8.73889 5.31111 8.8 5.16667 8.8 5C8.8 4.83333 8.73889 4.69444 8.61667 4.58333C8.50556 4.46111 8.36667 4.4 8.2 4.4H5.8C5.63333 4.4 5.48889 4.46111 5.36667 4.58333C5.25556 4.69444 5.2 4.83333 5.2 5C5.2 5.16667 5.25556 5.31111 5.36667 5.43333C5.48889 5.54444 5.63333 5.6 5.8 5.6Z" fill="#A8C7FA"/>
</g>
<defs>
<clipPath id="clip0_5316_1051">
<rect width="16" height="16" fill="white"/>
</clipPath>
</defs>
</svg>
