<svg width="12" height="12" viewBox="0 0 12 12" fill="none" xmlns="http://www.w3.org/2000/svg">
<path d="M1.4 12C1.01111 12 0.677778 11.8667 0.4 11.6C0.133333 11.3222 0 10.9889 0 10.6V1.4C0 1.01111 0.133333 0.683332 0.4 0.416666C0.677778 0.138888 1.01111 -9.53674e-07 1.4 -9.53674e-07H10.6C10.9889 -9.53674e-07 11.3167 0.138888 11.5833 0.416666C11.8611 0.683332 12 1.01111 12 1.4V10.6C12 10.9889 11.8611 11.3222 11.5833 11.6C11.3167 11.8667 10.9889 12 10.6 12H1.4ZM1.4 10.6H10.6V1.4H1.4V10.6ZM1.4 10.6V1.4V10.6Z" fill="#C4C7C5"/>
</svg>
