<svg width="16" height="12" viewBox="0 0 16 12" fill="none" xmlns="http://www.w3.org/2000/svg">
<path d="M2.5 -1.43051e-06L4 3H6L4.5 -1.43051e-06H6L7.5 3H9.5L8 -1.43051e-06H9.5L11 3H13L11.5 -1.43051e-06H14.5C14.9167 -1.43051e-06 15.2708 0.152776 15.5625 0.458332C15.8542 0.749999 16 1.09722 16 1.5V10.5C16 10.9028 15.8542 11.2569 15.5625 11.5625C15.2708 11.8542 14.9167 12 14.5 12H1.5C1.09722 12 0.743056 11.8542 0.4375 11.5625C0.145833 11.2569 1.78814e-07 10.9028 1.78814e-07 10.5V1.5C1.78814e-07 1.09722 0.138889 0.749999 0.416667 0.458332C0.708334 0.152776 1.06944 -1.43051e-06 1.5 -1.43051e-06H2.5Z" fill="#C4C7C5"/>
</svg>
