<svg width="13" height="13" viewBox="0 0 13 13" fill="none" xmlns="http://www.w3.org/2000/svg">
<path d="M11.3 12.1499L9.51667 10.3666C9.27222 10.5221 8.97778 10.6721 8.63333 10.8166C8.3 10.9499 7.98889 11.0499 7.7 11.1166V9.88324C7.83333 9.82768 7.98889 9.76657 8.16667 9.6999C8.35556 9.62212 8.51111 9.5499 8.63333 9.48324L6.5 7.3499V10.4666L3.3 7.26657H0.9V4.06657H3.2L1.19209e-07 0.849901L0.85 -9.82285e-05L12.15 11.2999L11.3 12.1499ZM11.2 8.66657L10.3333 7.7999C10.5111 7.47768 10.65 7.13879 10.75 6.78324C10.85 6.41657 10.9 6.04435 10.9 5.66657C10.9 4.67768 10.6 3.7999 10 3.03324C9.41111 2.25546 8.64444 1.72212 7.7 1.43324V0.199902C9 0.455457 10.0556 1.0999 10.8667 2.13323C11.6889 3.16657 12.1 4.34435 12.1 5.66657C12.1 6.1999 12.0222 6.72212 11.8667 7.23324C11.7111 7.73324 11.4889 8.21101 11.2 8.66657ZM9.13333 6.5999L7.7 5.16657V3.13323C8.2 3.35546 8.58889 3.6999 8.86667 4.16657C9.15556 4.62212 9.3 5.12212 9.3 5.66657C9.3 5.82212 9.28889 5.97768 9.26667 6.13324C9.24444 6.28879 9.2 6.44435 9.13333 6.5999ZM6.5 3.96657L4.95 2.41657L6.5 0.866569V3.96657ZM5.3 7.56657V6.1499L4.1 4.9499L3.8 5.26657H2.1V6.06657H3.8L5.3 7.56657Z" fill="#C4C7C5"/>
</svg>
