<svg width="13" height="13" viewBox="0 0 13 13" fill="none" xmlns="http://www.w3.org/2000/svg">
<path d="M9.60039 11.1999V1.5999C9.92261 1.5999 10.2004 1.71657 10.4337 1.9499C10.6782 2.18324 10.8004 2.46657 10.8004 2.7999V9.9999C10.8004 10.3332 10.6782 10.6166 10.4337 10.8499C10.2004 11.0832 9.92261 11.1999 9.60039 11.1999ZM1.20039 12.7999C0.867057 12.7999 0.583724 12.6832 0.350391 12.4499C0.117057 12.2166 0.000390768 11.9332 0.000390768 11.5999V1.1999C0.000390768 0.866568 0.117057 0.583235 0.350391 0.349901C0.583724 0.116568 0.867057 -9.82285e-05 1.20039 -9.82285e-05H7.20039C7.52261 -9.82285e-05 7.80039 0.116568 8.03372 0.349901C8.27817 0.583235 8.40039 0.866568 8.40039 1.1999V11.5999C8.40039 11.9332 8.27817 12.2166 8.03372 12.4499C7.80039 12.6832 7.52261 12.7999 7.20039 12.7999H1.20039ZM12.0004 10.3999V2.3999C12.2448 2.3999 12.4393 2.52768 12.5837 2.78323C12.7282 3.03879 12.8004 3.28879 12.8004 3.53324V9.26657C12.8004 9.51101 12.7282 9.76101 12.5837 10.0166C12.4393 10.2721 12.2448 10.3999 12.0004 10.3999ZM1.20039 11.5999H7.20039V1.1999H1.20039V11.5999ZM1.20039 1.1999V11.5999V1.1999Z" fill="#C4C7C5"/>
</svg>
